<svg width="30" height="24" viewBox="0 0 30 24" fill="none" xmlns="http://www.w3.org/2000/svg">
<path d="M0 0H30V24H0V0Z" fill="#D9D9D9"/>
<path d="M10.5704 9.0022C10.5704 8.88547 10.5475 8.78247 10.5017 8.69321C10.4588 8.60165 10.3816 8.51926 10.27 8.44601C10.1613 8.37277 10.0096 8.30296 9.81508 8.23659C9.62339 8.17021 9.38021 8.10269 9.08552 8.03403C8.77653 7.96078 8.49758 7.87953 8.24867 7.79027C7.99976 7.69872 7.78662 7.59457 7.60923 7.47784C7.43185 7.36111 7.29595 7.22722 7.20154 7.07616C7.10712 6.92509 7.05992 6.75229 7.05992 6.55774C7.05992 6.36319 7.10999 6.18352 7.21012 6.01872C7.31026 5.85393 7.45331 5.71088 7.63927 5.58957C7.8281 5.46597 8.05269 5.36984 8.31305 5.30118C8.5734 5.23251 8.86379 5.19818 9.18423 5.19818C9.65343 5.19818 10.0511 5.27028 10.3773 5.41447C10.7063 5.55638 10.9566 5.74292 11.1283 5.97409C11.3 6.20297 11.3858 6.44788 11.3858 6.7088H10.5618C10.5618 6.52112 10.5117 6.35518 10.4116 6.21098C10.3115 6.0645 10.1598 5.95006 9.9567 5.86766C9.75357 5.78297 9.49608 5.74063 9.18423 5.74063C8.88954 5.74063 8.64635 5.77611 8.45467 5.84706C8.26298 5.91801 8.11993 6.01414 8.02551 6.13545C7.93396 6.25676 7.88818 6.39523 7.88818 6.55087C7.88818 6.65616 7.91536 6.75229 7.96972 6.83926C8.02694 6.92395 8.1142 7.00291 8.23151 7.07616C8.35167 7.1494 8.5033 7.21692 8.68641 7.27872C8.87238 7.34052 9.0941 7.40002 9.3516 7.45724C9.70636 7.53735 10.0125 7.62662 10.27 7.72504C10.5275 7.82346 10.7392 7.93446 10.9051 8.05806C11.0739 8.17937 11.1984 8.31784 11.2785 8.47348C11.3615 8.62683 11.403 8.80078 11.403 8.99533C11.403 9.19904 11.3515 9.38329 11.2485 9.54808C11.1455 9.71288 10.9981 9.85364 10.8064 9.97037C10.6147 10.0871 10.3844 10.1775 10.1155 10.2416C9.84941 10.3034 9.55187 10.3343 9.22285 10.3343C8.93389 10.3343 8.64922 10.3022 8.36884 10.2382C8.09132 10.1741 7.83812 10.0779 7.60923 9.94977C7.38321 9.82159 7.20154 9.66367 7.06421 9.47598C6.92974 9.28601 6.86251 9.06628 6.86251 8.8168H7.68648C7.68648 8.98846 7.72797 9.13609 7.81094 9.25969C7.89391 9.381 8.00692 9.4817 8.14997 9.56181C8.29588 9.64192 8.46039 9.70143 8.64349 9.74034C8.82946 9.77696 9.02258 9.79527 9.22285 9.79527C9.51181 9.79527 9.75643 9.76323 9.9567 9.69914C10.157 9.63506 10.3086 9.5435 10.4116 9.42448C10.5175 9.30547 10.5704 9.1647 10.5704 9.0022Z" fill="white"/>
<path d="M15.1795 9.40732V6.55087H15.9777V10.2656H15.2181L15.1795 9.40732ZM15.3297 8.62454L15.6602 8.61768C15.6602 8.86487 15.6273 9.09375 15.5614 9.30432C15.4985 9.5126 15.3955 9.69342 15.2525 9.84677C15.1094 10.0001 14.922 10.1203 14.6903 10.2073C14.4585 10.2919 14.1767 10.3343 13.8448 10.3343C13.6188 10.3343 13.4114 10.308 13.2226 10.2553C13.0366 10.2027 12.8764 10.1214 12.7419 10.0116C12.6074 9.9017 12.503 9.75865 12.4286 9.58241C12.3571 9.40617 12.3213 9.19446 12.3213 8.94727V6.55087H13.1153V8.95413C13.1153 9.12122 13.1382 9.25969 13.1839 9.36955C13.2326 9.47713 13.2969 9.56296 13.3771 9.62704C13.46 9.68884 13.5516 9.73233 13.6517 9.75751C13.7547 9.78268 13.8606 9.79527 13.9693 9.79527C14.3069 9.79527 14.5744 9.74377 14.7718 9.64078C14.9692 9.53549 15.1108 9.39473 15.1967 9.21849C15.2854 9.03996 15.3297 8.84198 15.3297 8.62454Z" fill="white"/>
<path d="M19.9259 9.63048V7.71817C19.9259 7.57169 19.8887 7.44466 19.8144 7.33708C19.7428 7.22722 19.6341 7.14253 19.4882 7.08302C19.3423 7.02351 19.162 6.99376 18.9475 6.99376C18.7472 6.99376 18.5712 7.02122 18.4196 7.07616C18.2708 7.13109 18.1535 7.20319 18.0677 7.29245C17.9847 7.38171 17.9432 7.47784 17.9432 7.58084H17.1493C17.1493 7.44809 17.1922 7.31648 17.2781 7.18602C17.3639 7.05556 17.4869 6.93768 17.6471 6.8324C17.8102 6.72482 18.0048 6.64014 18.2308 6.57834C18.4597 6.51425 18.7143 6.48221 18.9947 6.48221C19.3323 6.48221 19.6298 6.52798 19.8873 6.61954C20.1477 6.71109 20.3508 6.84956 20.4967 7.03496C20.6455 7.21806 20.7199 7.44809 20.7199 7.72504V9.45538C20.7199 9.57898 20.7327 9.71059 20.7585 9.8502C20.7871 9.98982 20.8286 10.11 20.8829 10.2107V10.2656H20.0547C20.0146 10.1924 19.9832 10.0951 19.9603 9.9738C19.9374 9.8502 19.9259 9.73576 19.9259 9.63048ZM20.0633 8.01343L20.0718 8.45975H19.2693C19.0433 8.45975 18.8416 8.47462 18.6642 8.50438C18.4868 8.53185 18.3381 8.57419 18.2179 8.63141C18.0977 8.68863 18.0062 8.76073 17.9432 8.8477C17.8803 8.93239 17.8488 9.03195 17.8488 9.14639C17.8488 9.26312 17.8817 9.36955 17.9475 9.46568C18.0133 9.56181 18.112 9.63849 18.2437 9.69571C18.3781 9.75064 18.5426 9.77811 18.7372 9.77811C18.9804 9.77811 19.1949 9.73691 19.3809 9.65451C19.5669 9.57211 19.7142 9.47141 19.8229 9.35239C19.9345 9.23337 19.9946 9.11778 20.0032 9.00563L20.3422 9.31119C20.3222 9.40732 20.2678 9.51375 20.1791 9.63048C20.0904 9.74721 19.9717 9.85936 19.8229 9.96693C19.677 10.0722 19.5025 10.1603 19.2994 10.2313C19.0991 10.3 18.8731 10.3343 18.6213 10.3343C18.3066 10.3343 18.0305 10.2851 17.793 10.1867C17.5584 10.0882 17.3753 9.95663 17.2437 9.79184C17.115 9.62476 17.0506 9.43822 17.0506 9.23222C17.0506 9.0331 17.0992 8.858 17.1965 8.70694C17.2938 8.55359 17.434 8.42656 17.6171 8.32585C17.8002 8.22285 18.0205 8.14503 18.278 8.09239C18.5355 8.03975 18.823 8.01343 19.1406 8.01343H20.0633Z" fill="white"/>
<path d="M9.69492 17.9766V18.5156H6.57068V17.9766H9.69492ZM6.73376 13.5168V18.5156H5.90549V13.5168H6.73376Z" fill="white"/>
<path d="M10.3129 16.6994V16.6205C10.3129 16.3527 10.3615 16.1044 10.4588 15.8755C10.5561 15.6443 10.6963 15.444 10.8794 15.2747C11.0625 15.103 11.2842 14.9702 11.5446 14.8764C11.8049 14.7803 12.0967 14.7322 12.42 14.7322C12.7462 14.7322 13.0395 14.7803 13.2998 14.8764C13.563 14.9702 13.7862 15.103 13.9693 15.2747C14.1553 15.444 14.2969 15.6443 14.3941 15.8755C14.4914 16.1044 14.5401 16.3527 14.5401 16.6205V16.6994C14.5401 16.9672 14.4914 17.2156 14.3941 17.4445C14.2969 17.6733 14.1553 17.8736 13.9693 18.0453C13.7862 18.2146 13.5645 18.3474 13.3041 18.4435C13.0466 18.5374 12.7548 18.5843 12.4286 18.5843C12.1025 18.5843 11.8092 18.5374 11.5489 18.4435C11.2885 18.3474 11.0653 18.2146 10.8794 18.0453C10.6963 17.8736 10.5561 17.6733 10.4588 17.4445C10.3615 17.2156 10.3129 16.9672 10.3129 16.6994ZM11.1068 16.6205V16.6994C11.1068 16.8848 11.134 17.0599 11.1884 17.2247C11.2427 17.3872 11.3243 17.5314 11.433 17.6573C11.5446 17.7832 11.6833 17.8828 11.8493 17.956C12.0152 18.027 12.2083 18.0624 12.4286 18.0624C12.6461 18.0624 12.8363 18.027 12.9994 17.956C13.1653 17.8828 13.3027 17.7832 13.4114 17.6573C13.5201 17.5314 13.6016 17.3872 13.656 17.2247C13.7132 17.0599 13.7418 16.8848 13.7418 16.6994V16.6205C13.7418 16.4374 13.7132 16.2646 13.656 16.1021C13.6016 15.9373 13.5187 15.7919 13.4071 15.666C13.2984 15.5379 13.161 15.4372 12.9951 15.3639C12.832 15.2907 12.6403 15.2541 12.42 15.2541C12.2026 15.2541 12.0109 15.2907 11.845 15.3639C11.6819 15.4372 11.5446 15.5379 11.433 15.666C11.3243 15.7919 11.2427 15.9373 11.1884 16.1021C11.134 16.2646 11.1068 16.4374 11.1068 16.6205Z" fill="white"/>
<path d="M18.5441 14.8009H19.265V18.4367C19.265 18.764 19.1821 19.0432 19.0161 19.2744C18.8502 19.5055 18.6185 19.6806 18.3209 19.7997C18.0262 19.921 17.6858 19.9816 17.2995 19.9816C17.1393 19.9816 16.9505 19.961 16.733 19.9198C16.5185 19.8809 16.3067 19.8134 16.0979 19.7173C15.8919 19.6234 15.7188 19.4964 15.5786 19.3362L15.9949 18.9585C16.1894 19.1462 16.3926 19.2767 16.6043 19.3499C16.8189 19.4231 17.0306 19.4598 17.2394 19.4598C17.4912 19.4598 17.7086 19.422 17.8918 19.3465C18.0749 19.2709 18.2165 19.1588 18.3166 19.01C18.4196 18.8635 18.4711 18.6827 18.4711 18.4676V15.618L18.5441 14.8009ZM15.3469 16.6994V16.6273C15.3469 16.3435 15.3884 16.086 15.4713 15.8549C15.5572 15.6214 15.6787 15.4211 15.8361 15.2541C15.9963 15.087 16.1894 14.9588 16.4155 14.8695C16.6415 14.778 16.8961 14.7322 17.1794 14.7322C17.4712 14.7322 17.7258 14.7734 17.9432 14.8558C18.1635 14.9359 18.3495 15.0538 18.5011 15.2094C18.6556 15.3628 18.7772 15.5482 18.8659 15.7656C18.9546 15.983 19.0161 16.2291 19.0505 16.5038V16.8196C19.019 17.092 18.9575 17.3369 18.8659 17.5543C18.7772 17.7718 18.6556 17.9572 18.5011 18.1105C18.3495 18.2639 18.1635 18.3817 17.9432 18.4641C17.7229 18.5442 17.4655 18.5843 17.1708 18.5843C16.8933 18.5843 16.6415 18.5374 16.4155 18.4435C16.1923 18.3497 16.0006 18.2181 15.8404 18.0487C15.6802 17.8793 15.5572 17.6802 15.4713 17.4513C15.3884 17.2202 15.3469 16.9695 15.3469 16.6994ZM16.1408 16.6273V16.6994C16.1408 16.8848 16.1637 17.0588 16.2095 17.2213C16.2581 17.3838 16.3311 17.5269 16.4283 17.6505C16.5285 17.774 16.6558 17.8713 16.8103 17.9423C16.9648 18.0109 17.1493 18.0453 17.3639 18.0453C17.6271 18.0453 17.8445 18.0006 18.0162 17.9114C18.1879 17.8221 18.3238 17.7042 18.4239 17.5578C18.5269 17.4113 18.607 17.2522 18.6642 17.0805V16.2531C18.6328 16.1272 18.5841 16.0059 18.5183 15.8892C18.4554 15.7702 18.3724 15.6649 18.2694 15.5733C18.1693 15.4795 18.0448 15.4051 17.896 15.3502C17.7473 15.2953 17.5727 15.2678 17.3725 15.2678C17.155 15.2678 16.9676 15.3044 16.8103 15.3777C16.6558 15.4486 16.5285 15.547 16.4283 15.6729C16.3311 15.7965 16.2581 15.9407 16.2095 16.1055C16.1637 16.268 16.1408 16.442 16.1408 16.6273Z" fill="white"/>
<path d="M20.2607 16.6994V16.6205C20.2607 16.3527 20.3093 16.1044 20.4066 15.8755C20.5039 15.6443 20.6441 15.444 20.8272 15.2747C21.0103 15.103 21.232 14.9702 21.4923 14.8764C21.7527 14.7803 22.0445 14.7322 22.3678 14.7322C22.694 14.7322 22.9872 14.7803 23.2476 14.8764C23.5108 14.9702 23.734 15.103 23.9171 15.2747C24.103 15.444 24.2447 15.6443 24.3419 15.8755C24.4392 16.1044 24.4878 16.3527 24.4878 16.6205V16.6994C24.4878 16.9672 24.4392 17.2156 24.3419 17.4445C24.2447 17.6733 24.103 17.8736 23.9171 18.0453C23.734 18.2146 23.5122 18.3474 23.2519 18.4435C22.9944 18.5374 22.7026 18.5843 22.3764 18.5843C22.0502 18.5843 21.757 18.5374 21.4966 18.4435C21.2363 18.3474 21.0131 18.2146 20.8272 18.0453C20.6441 17.8736 20.5039 17.6733 20.4066 17.4445C20.3093 17.2156 20.2607 16.9672 20.2607 16.6994ZM21.0546 16.6205V16.6994C21.0546 16.8848 21.0818 17.0599 21.1362 17.2247C21.1905 17.3872 21.272 17.5314 21.3808 17.6573C21.4923 17.7832 21.6311 17.8828 21.797 17.956C21.963 18.027 22.1561 18.0624 22.3764 18.0624C22.5938 18.0624 22.7841 18.027 22.9472 17.956C23.1131 17.8828 23.2504 17.7832 23.3592 17.6573C23.4679 17.5314 23.5494 17.3872 23.6038 17.2247C23.661 17.0599 23.6896 16.8848 23.6896 16.6994V16.6205C23.6896 16.4374 23.661 16.2646 23.6038 16.1021C23.5494 15.9373 23.4665 15.7919 23.3549 15.666C23.2462 15.5379 23.1088 15.4372 22.9429 15.3639C22.7798 15.2907 22.5881 15.2541 22.3678 15.2541C22.1504 15.2541 21.9587 15.2907 21.7928 15.3639C21.6297 15.4372 21.4923 15.5379 21.3808 15.666C21.272 15.7919 21.1905 15.9373 21.1362 16.1021C21.0818 16.2646 21.0546 16.4374 21.0546 16.6205Z" fill="white"/>
</svg>
